<svg height="90" width="90" xmlns="http://www.w3.org/2000/svg" xmlns:xlink="http://www.w3.org/1999/xlink" viewBox="0 0 89.28 90">
        <defs>
          <style>
            .cls-1 {
              fill: #fff;
          }

          .cls-2 {
              fill: none;
          }

          .cls-3 {
              fill: #daeeff;
          }

          .cls-4 {
              clip-path: url(#clip-path);
          }

          .cls-5 {
              mask: url(#mask);
          }

          .cls-6 {
              fill: #7990a4;
          }</style>
          <clipPath id="clip-path">
            <rect class="cls-2" x="25.2" y="25.4" width="38.88" height="39.19"/>
          </clipPath>
          <mask id="mask" x="6" y="9.24" width="70.95" height="74.48" maskUnits="userSpaceOnUse">
            <g id="mask0">
              <path class="cls-1"
                    d="M63.89,46.3,61.6,42.66,63,38.57a1.26,1.26,0,0,0-.55-1.47L58.7,35,58,30.69a1.25,1.25,0,0,0-1.17-1l-4.27-.17L50,26a1.21,1.21,0,0,0-1.51-.37l-3.86,1.85-3.87-1.85a1.2,1.2,0,0,0-1.5.37L36.7,29.48l-4.28.17a1.24,1.24,0,0,0-1.16,1L30.58,35,26.87,37.1a1.26,1.26,0,0,0-.55,1.47l1.36,4.08L25.39,46.3a1.24,1.24,0,0,0,.19,1.55l3.09,3-.35,4.3a1.24,1.24,0,0,0,.88,1.29l4.11,1.19,1.67,4a1.23,1.23,0,0,0,1.38.73l4.19-.87,3.31,2.74a1.23,1.23,0,0,0,1.56,0l3.31-2.74,4.19.87a1.23,1.23,0,0,0,1.38-.73l1.67-4,4.11-1.19A1.24,1.24,0,0,0,61,55.14l-.35-4.3,3.09-3A1.24,1.24,0,0,0,63.89,46.3ZM53.51,40.35l-8.59,13a1.7,1.7,0,0,1-1.33.81,2.17,2.17,0,0,1-1.4-.64L35.88,47a1.15,1.15,0,0,1,0-1.6l1.56-1.59a1.08,1.08,0,0,1,1.55,0L43.1,48l6.76-10.22a1.08,1.08,0,0,1,1.53-.3l1.82,1.27A1.13,1.13,0,0,1,53.51,40.35Z"/>
            </g>
          </mask>
        </defs>
        <g id="Layer_2" data-name="Layer 2">
          <g id="Layer_1-2" data-name="Layer 1">
            <ellipse class="cls-3" cx="44.64" cy="45" rx="44.64" ry="45"/>
            <g class="cls-4">
              <path class="cls-1"
                    d="M63.89,46.3,61.6,42.66,63,38.57a1.26,1.26,0,0,0-.55-1.47L58.7,35,58,30.69a1.25,1.25,0,0,0-1.17-1l-4.27-.17L50,26a1.21,1.21,0,0,0-1.51-.37l-3.86,1.85-3.87-1.86a1.22,1.22,0,0,0-1.5.38L36.7,29.48l-4.28.17a1.24,1.24,0,0,0-1.16,1L30.58,35,26.87,37.1a1.25,1.25,0,0,0-.55,1.46l1.36,4.09L25.39,46.3a1.24,1.24,0,0,0,.19,1.55l3.09,3-.35,4.3a1.24,1.24,0,0,0,.88,1.29l4.11,1.19,1.67,4a1.23,1.23,0,0,0,1.38.73l4.19-.87,3.31,2.74a1.23,1.23,0,0,0,1.56,0l3.31-2.74,4.19.87a1.23,1.23,0,0,0,1.38-.73l1.67-4,4.11-1.19A1.24,1.24,0,0,0,61,55.14l-.35-4.3,3.09-3A1.24,1.24,0,0,0,63.89,46.3ZM53.51,40.35l-8.59,13a1.7,1.7,0,0,1-1.33.81,2.17,2.17,0,0,1-1.4-.64L35.88,47a1.15,1.15,0,0,1,0-1.6l1.56-1.59a1.08,1.08,0,0,1,1.55,0L43.1,48l6.76-10.22a1.08,1.08,0,0,1,1.53-.3l1.82,1.27A1.13,1.13,0,0,1,53.51,40.35Z"/>
              <circle class="cls-1" cx="42.81" cy="43.69" r="12.19"/>
              <g class="cls-5">
                <polygon class="cls-6" points="38.87 9.24 76.95 35.76 44.07 83.73 6 57.21 38.87 9.24"/>
              </g>
            </g>
            <path class="cls-6" d="M78.48,61.25c-1-3.51-5.76-3.18-5.76-3.18l.13,2.45c2.74-.46,4.44,2.63,4.44,2.63Z"/>
            <path class="cls-6" d="M31.43,72.58c-3.64.37-4.07,4.81-4.07,4.81l2.43.27c0-2.59,3.33-3.65,3.33-3.65Z"/>
            <path class="cls-6" d="M36.68,13.51c.43-2.86-2.88-4.07-2.88-4.07l-.68,1.79c2,.52,2.17,3.29,2.17,3.29Z"/>
            <path class="cls-6" d="M72.79,23.22c3.77.21,5-4.38,5-4.38l-2.42-.69c-.45,2.74-4.06,3.3-4.06,3.3Z"/>
            <path class="cls-1" d="M17.28,63.41c-.89-3.5-5-3.16-5-3.16l.12,2.44c2.39-.45,3.88,2.63,3.88,2.63Z"/>
            <path class="cls-1"
                  d="M49.41,16.49C53.57,17.72,56.16,13,56.16,13l-2.54-1.42c-1.23,2.88-5.38,2.55-5.38,2.55Z"/>
            <path class="cls-1" d="M61.88,81.44c.48-3.66-3.47-5.23-3.47-5.23l-.81,2.31c2.39.67,2.6,4.22,2.6,4.22Z"/>
            <path class="cls-1" d="M76.38,42a4.94,4.94,0,0,1-1.83.17A4.9,4.9,0,0,1,72.72,42,9,9,0,0,1,76.38,42Z"/>
            <path class="cls-1"
                  d="M78.31,37a4.91,4.91,0,0,1,.18,1.87,4.91,4.91,0,0,1-.18,1.87,5.36,5.36,0,0,1-.17-1.87A5.13,5.13,0,0,1,78.31,37Z"/>
            <path class="cls-1"
                  d="M80.38,41.91a5.35,5.35,0,0,1,1.83-.17,5.16,5.16,0,0,1,1.83.17A9,9,0,0,1,80.38,41.91Z"/>
            <path class="cls-1"
                  d="M78.44,47a5.29,5.29,0,0,1-.18-1.86,5.37,5.37,0,0,1,.18-1.87,4.93,4.93,0,0,1,.18,1.87A4.86,4.86,0,0,1,78.44,47Z"/>
            <path class="cls-1"
                  d="M81.4,44.78a2.2,2.2,0,0,1-.79-.66c-.37-.43-.58-.85-.52-.92s.44.25.79.68S81.48,44.68,81.4,44.78Z"/>
            <path class="cls-1" d="M81.23,39.09c.06.07-.18.44-.55.82s-.73.62-.8.55.17-.42.55-.8S81.16,39,81.23,39.09Z"/>
            <path class="cls-1" d="M77,40.54c0,.08-.4-.1-.75-.4s-.6-.6-.53-.68.4.1.76.4S77.1,40.46,77,40.54Z"/>
            <path class="cls-1" d="M76.87,43c.07.07-.14.43-.48.81s-.67.62-.74.55.13-.42.48-.79S76.8,43,76.87,43Z"/>
            <path class="cls-6"
                  d="M12.09,26a5.23,5.23,0,0,1-2.08.21A5.28,5.28,0,0,1,7.92,26a5.91,5.91,0,0,1,2.09-.2A5.83,5.83,0,0,1,12.09,26Z"/>
            <path class="cls-6"
                  d="M14.37,20.32a5.69,5.69,0,0,1,.2,2.13,5.72,5.72,0,0,1-.2,2.14,5.72,5.72,0,0,1-.2-2.14A5.69,5.69,0,0,1,14.37,20.32Z"/>
            <path class="cls-6"
                  d="M16.67,25.91a5.26,5.26,0,0,1,2.09-.21,5.23,5.23,0,0,1,2.08.21,5.85,5.85,0,0,1-2.08.2A5.88,5.88,0,0,1,16.67,25.91Z"/>
            <path class="cls-6"
                  d="M14.45,31.58a5.91,5.91,0,0,1-.21-2.13,6,6,0,0,1,.21-2.15,5.58,5.58,0,0,1,.21,2.15A5.49,5.49,0,0,1,14.45,31.58Z"/>
            <path class="cls-6"
                  d="M17.82,29.17c-.08.08-.49-.26-.89-.76s-.68-.95-.59-1,.49.28.9.76S17.91,29.1,17.82,29.17Z"/>
            <path class="cls-6"
                  d="M17.63,22.69c.08.08-.21.49-.62.92s-.84.72-.93.64.21-.5.63-.93S17.54,22.61,17.63,22.69Z"/>
            <path class="cls-6"
                  d="M12.85,24.34c-.08.08-.46-.11-.86-.46s-.68-.68-.61-.77.47.12.87.46S12.91,24.25,12.85,24.34Z"/>
            <path class="cls-6"
                  d="M12.65,27.2c.09.08-.15.48-.54.9s-.76.71-.85.65.17-.49.55-.92S12.57,27.12,12.65,27.2Z"/>
            <path class="cls-6" d="M5.07,45.74c-.41,3.48,4.18,4.34,4.18,4.34l.83-2.32c-2.75-.26-3.15-3.49-3.15-3.49Z"/>
          </g>
        </g>
      </svg>